<svg width="32" height="32" viewBox="0 0 32 32" fill="none" xmlns="http://www.w3.org/2000/svg">
<circle cx="16" cy="16" r="14" fill="#7289DA"/>
<path d="M16 3C7.71573 3 1 9.71573 1 16C1 22.2843 7.71573 29 16 29C24.2843 29 31 22.2843 31 16C31 9.71573 24.2843 3 16 3ZM16 25C10.4772 25 6 20.5228 6 16C6 11.4772 10.4772 7 16 7C21.5228 7 26 11.4772 26 16C26 20.5228 21.5228 25 16 25Z" fill="white"/>
<path d="M16 11C13.2386 11 11 13.2386 11 16C11 18.7614 13.2386 21 16 21C18.7614 21 21 18.7614 21 16C21 13.2386 18.7614 11 16 11Z" fill="#7289DA"/>
</svg>

